<svg width="49" height="49" viewBox="0 0 49 49" fill="none" xmlns="http://www.w3.org/2000/svg">
<path d="M40.4999 8.5H8.49994C6.29394 8.5 4.49994 10.294 4.49994 12.5V36.5C4.49994 38.706 6.29394 40.5 8.49994 40.5H40.4999C42.7059 40.5 44.4999 38.706 44.4999 36.5V12.5C44.4999 10.294 42.7059 8.5 40.4999 8.5ZM40.4999 12.5V13.522L24.4999 25.968L8.49994 13.524V12.5H40.4999ZM8.49994 36.5V18.588L23.2719 30.078C23.6222 30.3531 24.0546 30.5026 24.4999 30.5026C24.9453 30.5026 25.3777 30.3531 25.7279 30.078L40.4999 18.588L40.5039 36.5H8.49994Z" fill="black"/>
</svg>
