<svg width="49" height="49" viewBox="0 0 49 49" fill="none" xmlns="http://www.w3.org/2000/svg">
<path d="M24.1668 28.5C28.5788 28.5 32.1668 24.912 32.1668 20.5C32.1668 16.088 28.5788 12.5 24.1668 12.5C19.7548 12.5 16.1668 16.088 16.1668 20.5C16.1668 24.912 19.7548 28.5 24.1668 28.5ZM24.1668 16.5C26.3728 16.5 28.1668 18.294 28.1668 20.5C28.1668 22.706 26.3728 24.5 24.1668 24.5C21.9608 24.5 20.1668 22.706 20.1668 20.5C20.1668 18.294 21.9608 16.5 24.1668 16.5ZM23.0069 44.128C23.3454 44.3697 23.7509 44.4997 24.1669 44.4997C24.5828 44.4997 24.9884 44.3697 25.3269 44.128C25.9349 43.698 40.2249 33.38 40.1669 20.5C40.1669 11.678 32.9889 4.5 24.1669 4.5C15.3449 4.5 8.16686 11.678 8.16686 20.49C8.10886 33.38 22.3989 43.698 23.0069 44.128ZM24.1669 8.5C30.7849 8.5 36.1669 13.882 36.1669 20.51C36.2089 29.386 27.3909 37.356 24.1669 39.97C20.9449 37.354 12.1249 29.382 12.1669 20.5C12.1669 13.882 17.5489 8.5 24.1669 8.5Z" fill="black"/>
<path d="M24.1668 28.5C28.5788 28.5 32.1668 24.912 32.1668 20.5C32.1668 16.088 28.5788 12.5 24.1668 12.5C19.7548 12.5 16.1668 16.088 16.1668 20.5C16.1668 24.912 19.7548 28.5 24.1668 28.5ZM24.1668 16.5C26.3728 16.5 28.1668 18.294 28.1668 20.5C28.1668 22.706 26.3728 24.5 24.1668 24.5C21.9608 24.5 20.1668 22.706 20.1668 20.5C20.1668 18.294 21.9608 16.5 24.1668 16.5ZM23.0069 44.128C23.3454 44.3697 23.7509 44.4997 24.1669 44.4997C24.5828 44.4997 24.9884 44.3697 25.3269 44.128C25.9349 43.698 40.2249 33.38 40.1669 20.5C40.1669 11.678 32.9889 4.5 24.1669 4.5C15.3449 4.5 8.16686 11.678 8.16686 20.49C8.10886 33.38 22.3989 43.698 23.0069 44.128ZM24.1669 8.5C30.7849 8.5 36.1669 13.882 36.1669 20.51C36.2089 29.386 27.3909 37.356 24.1669 39.97C20.9449 37.354 12.1249 29.382 12.1669 20.5C12.1669 13.882 17.5489 8.5 24.1669 8.5Z" fill="black"/>
</svg>
