<svg width="49" height="49" viewBox="0 0 49 49" fill="none" xmlns="http://www.w3.org/2000/svg">
<path d="M36.2475 25.0859C36.0619 24.9 35.8415 24.7525 35.5989 24.6519C35.3562 24.5513 35.0962 24.4995 34.8335 24.4995C34.5708 24.4995 34.3107 24.5513 34.0681 24.6519C33.8255 24.7525 33.6051 24.9 33.4195 25.0859L30.2315 28.2739C28.7535 27.8339 25.9955 26.8339 24.2475 25.0859C22.4995 23.3379 21.4995 20.5799 21.0595 19.1019L24.2475 15.9139C24.4334 15.7283 24.5809 15.5079 24.6815 15.2653C24.7821 15.0227 24.8339 14.7626 24.8339 14.4999C24.8339 14.2372 24.7821 13.9772 24.6815 13.7345C24.5809 13.4919 24.4334 13.2715 24.2475 13.0859L16.2475 5.08591C16.0619 4.90002 15.8415 4.75255 15.5989 4.65193C15.3562 4.5513 15.0962 4.49951 14.8335 4.49951C14.5708 4.49951 14.3107 4.5513 14.0681 4.65193C13.8255 4.75255 13.6051 4.90002 13.4195 5.08591L7.99549 10.5099C7.23549 11.2699 6.80749 12.3139 6.82349 13.3799C6.86949 16.2279 7.62349 26.1199 15.4195 33.9159C23.2155 41.7119 33.1075 42.4639 35.9575 42.5119H36.0135C37.0695 42.5119 38.0675 42.0959 38.8235 41.3399L44.2475 35.9159C44.4334 35.7303 44.5809 35.5099 44.6815 35.2673C44.7821 35.0247 44.8339 34.7646 44.8339 34.5019C44.8339 34.2392 44.7821 33.9792 44.6815 33.7365C44.5809 33.4939 44.4334 33.2735 44.2475 33.0879L36.2475 25.0859ZM35.9935 38.5099C33.4975 38.4679 24.9575 37.7979 18.2475 31.0859C11.5155 24.3539 10.8635 15.7839 10.8235 13.3379L14.8335 9.32791L20.0055 14.4999L17.4195 17.0859C17.1844 17.3208 17.0116 17.6106 16.9166 17.9291C16.8216 18.2475 16.8075 18.5846 16.8755 18.9099C16.9235 19.1399 18.0975 24.5939 21.4175 27.9139C24.7375 31.2339 30.1915 32.4079 30.4215 32.4559C30.7466 32.5258 31.084 32.5128 31.4028 32.4181C31.7215 32.3234 32.0113 32.15 32.2455 31.9139L34.8335 29.3279L40.0055 34.4999L35.9935 38.5099Z" fill="black"/>
</svg>
