<svg width="50" height="50" viewBox="0 0 50 50" fill="none" xmlns="http://www.w3.org/2000/svg">
<path d="M24.9997 8.33337C26.1503 8.33337 27.083 9.26611 27.083 10.4167V22.9167H39.583C40.7336 22.9167 41.6663 23.8495 41.6663 25C41.6663 26.1506 40.7336 27.0834 39.583 27.0834H27.083V39.5834C27.083 40.734 26.1503 41.6667 24.9997 41.6667C23.8491 41.6667 22.9163 40.734 22.9163 39.5834V27.0834H10.4163C9.26575 27.0834 8.33301 26.1506 8.33301 25C8.33301 23.8495 9.26575 22.9167 10.4163 22.9167H22.9163V10.4167C22.9163 9.26611 23.8491 8.33337 24.9997 8.33337Z" fill="#570570"/>
</svg>
